<?xml version="1.0" encoding="utf-8"?>
<!-- Generator: Adobe Illustrator 16.0.0, SVG Export Plug-In . SVG Version: 6.00 Build 0)  -->
<!DOCTYPE svg PUBLIC "-//W3C//DTD SVG 1.1//EN" "http://www.w3.org/Graphics/SVG/1.1/DTD/svg11.dtd">
<svg version="1.1" id="Layer_1" xmlns="http://www.w3.org/2000/svg" xmlns:xlink="http://www.w3.org/1999/xlink" x="0px" y="0px"
	 width="67px" height="67px" viewBox="0 0 67 67" enable-background="new 0 0 67 67" xml:space="preserve">
<path fill="#413F54" d="M52.301,49.286V36.208c0-7.007-3.741-10.268-8.727-10.268c-4.025,0-5.829,2.214-6.833,3.768v-3.232h-7.583
	c0.101,2.141,0,22.81,0,22.81h7.583V36.547c0-0.68,0.048-1.361,0.249-1.848c0.548-1.362,1.794-2.773,3.888-2.773
	c2.746,0,3.842,2.091,3.842,5.157v12.205h7.581V49.286z M21.171,23.363c2.644,0,4.29-1.753,4.29-3.943
	c-0.049-2.236-1.646-3.94-4.24-3.94c-2.593,0-4.289,1.703-4.289,3.94c0,2.19,1.646,3.943,4.191,3.943H21.171z M24.962,49.286v-22.81
	h-7.581v22.81H24.962z M0,0h67v67H0V0z"/>
</svg>
